# xmcd CD database file
#
# Track frame offsets:
#	150
#	21148
#	41284
#	59213
#	74007
#	94143
#	116479
#	130814
#	156231
#	171428
#
# Disc length: 2524 seconds
#
# Revision: 1
# Processed by: cddbd v1.5.1PL0 Copyright (c) Steve Scherf et al.
# Submitted via: CDex 1.51
#
DISCID=8f09da0a
DTITLE=Pernille Gunvad - Fire
DYEAR=2005
DGENRE=Jazz
TTITLE0=A Captive
TTITLE1=Fire
TTITLE2=Feels Like
TTITLE3=Carry Me
TTITLE4=This Body
TTITLE5=I Love You
TTITLE6=Happy?
TTITLE7=Running From Life
TTITLE8=Pollution
TTITLE9=Zombie
EXTD=YEAR: 2005
EXTT0=
EXTT1=
EXTT2=
EXTT3=
EXTT4=
EXTT5=
EXTT6=
EXTT7=
EXTT8=
EXTT9=
PLAYORDER=
